<svg fill="#000000" xmlns="http://www.w3.org/2000/svg"  viewBox="0 0 100 100" width="512px" height="512px"><path d="M 69.970703 4 A 1.0001 1.0001 0 0 0 69.478516 4.1464844 L 51.478516 15.146484 A 1.0001 1.0001 0 0 0 51 16 L 51 47 A 1.0001 1.0001 0 0 0 51.683594 47.949219 L 69.683594 53.949219 A 1.0001 1.0001 0 0 0 71 53 L 71 5 A 1.0001 1.0001 0 0 0 69.970703 4 z M 29.949219 4.0019531 A 1.0001 1.0001 0 0 0 29 5 L 29 53 A 1.0001 1.0001 0 0 0 30.316406 53.949219 L 48.316406 47.949219 A 1.0001 1.0001 0 0 0 49 47 L 49 16 A 1.0001 1.0001 0 0 0 48.521484 15.146484 L 30.521484 4.1464844 A 1.0001 1.0001 0 0 0 29.949219 4.0019531 z M 31 6.7832031 L 47 16.560547 L 47 46.279297 L 31 51.611328 L 31 6.7832031 z M 69 6.7832031 L 69 51.611328 L 53 46.279297 L 53 16.560547 L 69 6.7832031 z M 66.492188 11.992188 A 0.50005 0.50005 0 0 0 66 12.5 L 66 15.5 A 0.50005 0.50005 0 1 0 67 15.5 L 67 12.5 A 0.50005 0.50005 0 0 0 66.492188 11.992188 z M 66.492188 17.992188 A 0.50005 0.50005 0 0 0 66 18.5 L 66 47.5 A 0.50005 0.50005 0 1 0 67 47.5 L 67 18.5 A 0.50005 0.50005 0 0 0 66.492188 17.992188 z M 47.970703 50 A 1.0001 1.0001 0 0 0 47.683594 50.050781 L 29.683594 56.050781 A 1.0001 1.0001 0 0 0 29 57 L 29 83 A 1.0001 1.0001 0 0 0 29.478516 83.853516 L 47.478516 94.853516 A 1.0001 1.0001 0 0 0 49 94 L 49 51 A 1.0001 1.0001 0 0 0 47.970703 50 z M 52.021484 50 A 1.0001 1.0001 0 0 0 51 51 L 51 94 A 1.0001 1.0001 0 0 0 52.521484 94.853516 L 70.521484 83.853516 A 1.0001 1.0001 0 0 0 71 83 L 71 57 A 1.0001 1.0001 0 0 0 70.316406 56.050781 L 52.316406 50.050781 A 1.0001 1.0001 0 0 0 52.021484 50 z M 47 52.388672 L 47 92.216797 L 31 82.439453 L 31 57.720703 L 47 52.388672 z M 53 52.388672 L 69 57.720703 L 69 82.439453 L 53 92.216797 L 53 52.388672 z M 33.492188 58.992188 A 0.50005 0.50005 0 0 0 33 59.5 L 33 60.5 A 0.50005 0.50005 0 1 0 34 60.5 L 34 59.5 A 0.50005 0.50005 0 0 0 33.492188 58.992188 z M 33.492188 61.992188 A 0.50005 0.50005 0 0 0 33 62.5 L 33 64.5 A 0.50005 0.50005 0 1 0 34 64.5 L 34 62.5 A 0.50005 0.50005 0 0 0 33.492188 61.992188 z M 33.492188 66.992188 A 0.50005 0.50005 0 0 0 33 67.5 L 33 80.5 A 0.50005 0.50005 0 1 0 34 80.5 L 34 67.5 A 0.50005 0.50005 0 0 0 33.492188 66.992188 z"/></svg>